<?xml version="1.0" encoding="UTF-8" standalone="no"?>
<svg
   width="316"
   height="88"
   viewBox="0 0 316 88"
   fill="none"
   version="1.1"
   id="svg22"
   sodipodi:docname="bendec-logo.svg"
   inkscape:version="1.4.2 (1:1.4.2+202505120738+ebf0e940d0)"
   xmlns:inkscape="http://www.inkscape.org/namespaces/inkscape"
   xmlns:sodipodi="http://sodipodi.sourceforge.net/DTD/sodipodi-0.dtd"
   xmlns="http://www.w3.org/2000/svg"
   xmlns:svg="http://www.w3.org/2000/svg">
  <defs
     id="defs22" />
  <sodipodi:namedview
     id="namedview22"
     pagecolor="#ffffff"
     bordercolor="#666666"
     borderopacity="1.0"
     inkscape:showpageshadow="2"
     inkscape:pageopacity="0.0"
     inkscape:pagecheckerboard="0"
     inkscape:deskcolor="#d1d1d1"
     showgrid="false"
     inkscape:zoom="9.3892405"
     inkscape:cx="158"
     inkscape:cy="43.986518"
     inkscape:window-width="3840"
     inkscape:window-height="2471"
     inkscape:window-x="2560"
     inkscape:window-y="1081"
     inkscape:window-maximized="1"
     inkscape:current-layer="svg22" />
  <rect
     width="316"
     height="88"
     fill="#F5F5F5"
     id="rect1"
     style="fill:none" />
  <mask
     id="path-1-inside-1_0_1"
     fill="white">
    <path
       d="M0.799988 2.8H20.128C26.784 2.8 31.8187 4.37867 35.232 7.536C38.7307 10.6933 40.48 15.088 40.48 20.72V28.4C40.48 35.6533 37.4507 40.304 31.392 42.352C38.304 44.2293 41.76 48.9653 41.76 56.56V68.08C41.76 73.7973 40.0533 78.2347 36.64 81.392C33.2267 84.464 28.1493 86 21.408 86H0.799988V2.8ZM32.8 68.08V56.56C32.8 53.3173 31.8187 50.7147 29.856 48.752C27.8933 46.704 25.0773 45.68 21.408 45.68H9.75999V78.32H21.408C29.0027 78.32 32.8 74.9067 32.8 68.08ZM31.52 28.4V20.72C31.52 17.4773 30.5387 14.96 28.576 13.168C26.6133 11.376 23.7973 10.48 20.128 10.48H9.75999V39.28H20.128C23.8827 39.28 26.6987 38.2987 28.576 36.336C30.5387 34.3733 31.52 31.728 31.52 28.4Z"
       id="path1" />
    <path
       d="M86.785 70V62.96H95.745V70C95.745 75.7173 93.9957 80.1547 90.497 83.312C86.9983 86.384 81.7503 87.92 74.753 87.92C67.7557 87.92 62.465 86.384 58.881 83.312C55.297 80.1547 53.505 75.7173 53.505 70V18.8C53.505 13.0827 55.2543 8.68801 58.753 5.616C62.2517 2.45867 67.4997 0.880005 74.497 0.880005C81.4943 0.880005 86.785 2.45867 90.369 5.616C93.953 8.68801 95.745 13.0827 95.745 18.8V46.96H62.465V70C62.465 76.8267 66.5183 80.24 74.625 80.24C82.7317 80.24 86.785 76.8267 86.785 70ZM62.465 18.8V39.28H86.785V18.8C86.785 11.9733 82.7317 8.56001 74.625 8.56001C66.5183 8.56001 62.465 11.9733 62.465 18.8Z"
       id="path2" />
    <path
       d="M118.385 86H109.425V2.8H116.465V11.12C120.561 4.29334 126.236 0.880005 133.489 0.880005C146.033 0.880005 152.305 6.85334 152.305 18.8V86H143.345V18.8C143.345 15.5573 142.62 13.04 141.169 11.248C139.804 9.456 137.244 8.56001 133.489 8.56001C129.734 8.56001 126.278 10.0107 123.121 12.912C119.964 15.8133 118.385 18.6293 118.385 21.36V86Z"
       id="path3" />
    <path
       d="M187.283 86H166.675V2.8H187.283C193.939 2.8 198.974 4.37867 202.387 7.536C205.886 10.6933 207.635 15.088 207.635 20.72V68.08C207.635 73.7973 205.928 78.2347 202.515 81.392C199.102 84.464 194.024 86 187.283 86ZM198.675 68.08V20.72C198.675 17.4773 197.694 14.96 195.731 13.168C193.768 11.376 190.952 10.48 187.283 10.48H175.635V78.32H187.283C194.878 78.32 198.675 74.9067 198.675 68.08Z"
       id="path4" />
    <path
       d="M252.66 70V62.96H261.62V70C261.62 75.7173 259.871 80.1547 256.372 83.312C252.873 86.384 247.625 87.92 240.628 87.92C233.631 87.92 228.34 86.384 224.756 83.312C221.172 80.1547 219.38 75.7173 219.38 70V18.8C219.38 13.0827 221.129 8.68801 224.628 5.616C228.127 2.45867 233.375 0.880005 240.372 0.880005C247.369 0.880005 252.66 2.45867 256.244 5.616C259.828 8.68801 261.62 13.0827 261.62 18.8V46.96H228.34V70C228.34 76.8267 232.393 80.24 240.5 80.24C248.607 80.24 252.66 76.8267 252.66 70ZM228.34 18.8V39.28H252.66V18.8C252.66 11.9733 248.607 8.56001 240.5 8.56001C232.393 8.56001 228.34 11.9733 228.34 18.8Z"
       id="path5" />
    <path
       d="M306.66 70V62.96H315.62V70C315.62 75.7173 313.871 80.1547 310.372 83.312C306.873 86.384 301.625 87.92 294.628 87.92C287.631 87.92 282.34 86.384 278.756 83.312C275.172 80.1547 273.38 75.7173 273.38 70V18.8C273.38 13.0827 275.129 8.68801 278.628 5.616C282.127 2.45867 287.375 0.880005 294.372 0.880005C301.369 0.880005 306.66 2.45867 310.244 5.616C311.832 6.97753 313.069 8.59886 313.953 10.48C315.064 12.8433 315.62 15.6166 315.62 18.8V22.5V30.96H306.66V22.5V18.8C306.66 17.0917 306.406 15.5972 305.899 14.3164C304.378 10.4788 300.578 8.56001 294.5 8.56001C286.393 8.56001 282.34 11.9733 282.34 18.8V70C282.34 76.8267 286.393 80.24 294.5 80.24C302.607 80.24 306.66 76.8267 306.66 70Z"
       id="path6" />
  </mask>
  <path
     d="M0.799988 2.8H20.128C26.784 2.8 31.8187 4.37867 35.232 7.536C38.7307 10.6933 40.48 15.088 40.48 20.72V28.4C40.48 35.6533 37.4507 40.304 31.392 42.352C38.304 44.2293 41.76 48.9653 41.76 56.56V68.08C41.76 73.7973 40.0533 78.2347 36.64 81.392C33.2267 84.464 28.1493 86 21.408 86H0.799988V2.8ZM32.8 68.08V56.56C32.8 53.3173 31.8187 50.7147 29.856 48.752C27.8933 46.704 25.0773 45.68 21.408 45.68H9.75999V78.32H21.408C29.0027 78.32 32.8 74.9067 32.8 68.08ZM31.52 28.4V20.72C31.52 17.4773 30.5387 14.96 28.576 13.168C26.6133 11.376 23.7973 10.48 20.128 10.48H9.75999V39.28H20.128C23.8827 39.28 26.6987 38.2987 28.576 36.336C30.5387 34.3733 31.52 31.728 31.52 28.4Z"
     fill="black"
     id="path7" />
  <path
     d="M86.785 70V62.96H95.745V70C95.745 75.7173 93.9957 80.1547 90.497 83.312C86.9983 86.384 81.7503 87.92 74.753 87.92C67.7557 87.92 62.465 86.384 58.881 83.312C55.297 80.1547 53.505 75.7173 53.505 70V18.8C53.505 13.0827 55.2543 8.68801 58.753 5.616C62.2517 2.45867 67.4997 0.880005 74.497 0.880005C81.4943 0.880005 86.785 2.45867 90.369 5.616C93.953 8.68801 95.745 13.0827 95.745 18.8V46.96H62.465V70C62.465 76.8267 66.5183 80.24 74.625 80.24C82.7317 80.24 86.785 76.8267 86.785 70ZM62.465 18.8V39.28H86.785V18.8C86.785 11.9733 82.7317 8.56001 74.625 8.56001C66.5183 8.56001 62.465 11.9733 62.465 18.8Z"
     fill="black"
     id="path8" />
  <path
     d="M118.385 86H109.425V2.8H116.465V11.12C120.561 4.29334 126.236 0.880005 133.489 0.880005C146.033 0.880005 152.305 6.85334 152.305 18.8V86H143.345V18.8C143.345 15.5573 142.62 13.04 141.169 11.248C139.804 9.456 137.244 8.56001 133.489 8.56001C129.734 8.56001 126.278 10.0107 123.121 12.912C119.964 15.8133 118.385 18.6293 118.385 21.36V86Z"
     fill="black"
     id="path9" />
  <path
     d="M187.283 86H166.675V2.8H187.283C193.939 2.8 198.974 4.37867 202.387 7.536C205.886 10.6933 207.635 15.088 207.635 20.72V68.08C207.635 73.7973 205.928 78.2347 202.515 81.392C199.102 84.464 194.024 86 187.283 86ZM198.675 68.08V20.72C198.675 17.4773 197.694 14.96 195.731 13.168C193.768 11.376 190.952 10.48 187.283 10.48H175.635V78.32H187.283C194.878 78.32 198.675 74.9067 198.675 68.08Z"
     fill="black"
     id="path10" />
  <path
     d="M252.66 70V62.96H261.62V70C261.62 75.7173 259.871 80.1547 256.372 83.312C252.873 86.384 247.625 87.92 240.628 87.92C233.631 87.92 228.34 86.384 224.756 83.312C221.172 80.1547 219.38 75.7173 219.38 70V18.8C219.38 13.0827 221.129 8.68801 224.628 5.616C228.127 2.45867 233.375 0.880005 240.372 0.880005C247.369 0.880005 252.66 2.45867 256.244 5.616C259.828 8.68801 261.62 13.0827 261.62 18.8V46.96H228.34V70C228.34 76.8267 232.393 80.24 240.5 80.24C248.607 80.24 252.66 76.8267 252.66 70ZM228.34 18.8V39.28H252.66V18.8C252.66 11.9733 248.607 8.56001 240.5 8.56001C232.393 8.56001 228.34 11.9733 228.34 18.8Z"
     fill="black"
     id="path11" />
  <path
     d="M306.66 23H315.62V22H306.66V23ZM306.114 14.7678L314.168 10.9314L313.738 10.0286L305.684 13.865L306.114 14.7678ZM300.478 9.14704L302.478 2.64704L301.522 2.35296L299.522 8.85296L300.478 9.14704ZM0.799988 2.8V1.8H-0.200012V2.8H0.799988ZM35.232 7.536L34.5529 8.27016L34.562 8.2784L35.232 7.536ZM31.392 42.352L31.0718 41.4047L27.9607 42.4563L31.1299 43.317L31.392 42.352ZM36.64 81.392L37.309 82.1354L37.319 82.1261L36.64 81.392ZM0.799988 86H-0.200012V87H0.799988V86ZM29.856 48.752L29.134 49.4439L29.1414 49.4516L29.1489 49.4591L29.856 48.752ZM9.75999 45.68V44.68H8.75999V45.68H9.75999ZM9.75999 78.32H8.75999V79.32H9.75999V78.32ZM28.576 13.168L27.9017 13.9065L27.9017 13.9065L28.576 13.168ZM9.75999 10.48V9.48H8.75999V10.48H9.75999ZM9.75999 39.28H8.75999V40.28H9.75999V39.28ZM28.576 36.336L27.8689 35.6289L27.861 35.6368L27.8533 35.6448L28.576 36.336ZM86.785 62.96V61.96H85.785V62.96H86.785ZM95.745 62.96H96.745V61.96H95.745V62.96ZM90.497 83.312L91.1568 84.0635L91.167 84.0544L90.497 83.312ZM58.881 83.312L58.2199 84.0624L58.2302 84.0713L58.881 83.312ZM58.753 5.616L59.4129 6.36751L59.423 6.3584L58.753 5.616ZM90.369 5.616L89.7079 6.36643L89.7182 6.37526L90.369 5.616ZM95.745 46.96V47.96H96.745V46.96H95.745ZM62.465 46.96V45.96H61.465V46.96H62.465ZM62.465 39.28H61.465V40.28H62.465V39.28ZM86.785 39.28V40.28H87.785V39.28H86.785ZM118.385 86V87H119.385V86H118.385ZM109.425 86H108.425V87H109.425V86ZM109.425 2.8V1.8H108.425V2.8H109.425ZM116.465 2.8H117.465V1.8H116.465V2.8ZM116.465 11.12H115.465V14.7303L117.322 11.6345L116.465 11.12ZM152.305 86V87H153.305V86H152.305ZM143.345 86H142.345V87H143.345V86ZM141.169 11.248L140.374 11.854L140.382 11.8658L140.392 11.8772L141.169 11.248ZM123.121 12.912L122.444 12.1757L122.444 12.1757L123.121 12.912ZM166.675 86H165.675V87H166.675V86ZM166.675 2.8V1.8H165.675V2.8H166.675ZM202.387 7.536L201.708 8.27016L201.717 8.2784L202.387 7.536ZM202.515 81.392L203.184 82.1354L203.194 82.1261L202.515 81.392ZM195.731 13.168L195.057 13.9065L195.057 13.9065L195.731 13.168ZM175.635 10.48V9.48H174.635V10.48H175.635ZM175.635 78.32H174.635V79.32H175.635V78.32ZM252.66 62.96V61.96H251.66V62.96H252.66ZM261.62 62.96H262.62V61.96H261.62V62.96ZM256.372 83.312L257.032 84.0635L257.042 84.0544L256.372 83.312ZM224.756 83.312L224.095 84.0624L224.105 84.0713L224.756 83.312ZM224.628 5.616L225.288 6.36751L225.298 6.3584L224.628 5.616ZM256.244 5.616L255.583 6.36643L255.593 6.37526L256.244 5.616ZM261.62 46.96V47.96H262.62V46.96H261.62ZM228.34 46.96V45.96H227.34V46.96H228.34ZM228.34 39.28H227.34V40.28H228.34V39.28ZM252.66 39.28V40.28H253.66V39.28H252.66ZM306.66 62.96V61.96H305.66V62.96H306.66ZM315.62 62.96H316.62V61.96H315.62V62.96ZM310.372 83.312L311.032 84.0635L311.042 84.0544L310.372 83.312ZM278.756 83.312L278.095 84.0624L278.105 84.0713L278.756 83.312ZM278.628 5.616L279.288 6.36751L279.298 6.3584L278.628 5.616ZM310.244 5.616L309.583 6.36643L309.593 6.37526L310.244 5.616ZM315.62 30.96V31.96H316.62V30.96H315.62ZM306.66 30.96H305.66V31.96H306.66V30.96ZM305.899 14.3164L304.969 14.6849L305.899 14.3164ZM313.953 10.48L314.858 10.0545L313.953 10.48ZM0.799988 3.8H20.128V1.8H0.799988V3.8ZM20.128 3.8C26.6403 3.8 31.3908 5.34515 34.5529 8.2701L35.911 6.8019C32.2465 3.41219 26.9277 1.8 20.128 1.8V3.8ZM34.562 8.2784C37.8097 11.2092 39.48 15.3109 39.48 20.72H41.48C41.48 14.8651 39.6516 10.1774 35.902 6.79361L34.562 8.2784ZM39.48 20.72V28.4H41.48V20.72H39.48ZM39.48 28.4C39.48 31.8914 38.751 34.6622 37.3701 36.7822C35.9962 38.8914 33.9223 40.4411 31.0718 41.4047L31.7122 43.2993C34.9204 42.2149 37.3904 40.4153 39.0459 37.8738C40.6943 35.3431 41.48 32.1619 41.48 28.4H39.48ZM31.1299 43.317C34.4167 44.2098 36.7938 45.755 38.3602 47.9015C39.9309 50.0539 40.76 52.912 40.76 56.56H42.76C42.76 52.6134 41.8611 49.3061 39.9758 46.7225C38.0861 44.133 35.2793 42.3716 31.6541 41.387L31.1299 43.317ZM40.76 56.56V68.08H42.76V56.56H40.76ZM40.76 68.08C40.76 73.5874 39.1241 77.732 35.9609 80.6579L37.319 82.1261C40.9826 78.7373 42.76 74.0073 42.76 68.08H40.76ZM35.971 80.6487C32.8111 83.4927 28.0157 85 21.408 85V87C28.2829 87 33.6423 85.4353 37.309 82.1353L35.971 80.6487ZM21.408 85H0.799988V87H21.408V85ZM1.79999 86V2.8H-0.200012V86H1.79999ZM33.8 68.08V56.56H31.8V68.08H33.8ZM33.8 56.56C33.8 53.1003 32.7448 50.2266 30.5631 48.0449L29.1489 49.4591C30.8925 51.2027 31.8 53.5344 31.8 56.56H33.8ZM30.578 48.0601C28.3755 45.7619 25.2658 44.68 21.408 44.68V46.68C24.8888 46.68 27.4112 47.6462 29.134 49.4439L30.578 48.0601ZM21.408 44.68H9.75999V46.68H21.408V44.68ZM8.75999 45.68V78.32H10.76V45.68H8.75999ZM9.75999 79.32H21.408V77.32H9.75999V79.32ZM21.408 79.32C25.3347 79.32 28.4665 78.4399 30.6205 76.5037C32.7948 74.5493 33.8 71.6767 33.8 68.08H31.8C31.8 71.31 30.9065 73.5574 29.2835 75.0163C27.6402 76.4934 25.0759 77.32 21.408 77.32V79.32ZM32.52 28.4V20.72H30.52V28.4H32.52ZM32.52 20.72C32.52 17.2632 31.4651 14.4518 29.2503 12.4295L27.9017 13.9065C29.6122 15.4682 30.52 17.6915 30.52 20.72H32.52ZM29.2503 12.4295C27.0432 10.4144 23.9512 9.48 20.128 9.48V11.48C23.6434 11.48 26.1835 12.3376 27.9017 13.9065L29.2503 12.4295ZM20.128 9.48H9.75999V11.48H20.128V9.48ZM8.75999 10.48V39.28H10.76V10.48H8.75999ZM9.75999 40.28H20.128V38.28H9.75999V40.28ZM20.128 40.28C24.0484 40.28 27.1696 39.2531 29.2986 37.0272L27.8533 35.6448C26.2278 37.3443 23.7169 38.28 20.128 38.28V40.28ZM29.2831 37.0431C31.4698 34.8564 32.52 31.9367 32.52 28.4H30.52C30.52 31.5193 29.6075 33.8903 27.8689 35.6289L29.2831 37.0431ZM87.785 70V62.96H85.785V70H87.785ZM86.785 63.96H95.745V61.96H86.785V63.96ZM94.745 62.96V70H96.745V62.96H94.745ZM94.745 70C94.745 75.4998 93.0715 79.6417 89.827 82.5696L91.167 84.0544C94.9198 80.6676 96.745 75.9349 96.745 70H94.745ZM89.8372 82.5606C86.5937 85.4085 81.6258 86.92 74.753 86.92V88.92C81.8748 88.92 87.403 87.3595 91.1568 84.0634L89.8372 82.5606ZM74.753 86.92C67.8826 86.92 62.8647 85.4095 59.5318 82.5527L58.2302 84.0713C62.0653 87.3585 67.6288 88.92 74.753 88.92V86.92ZM59.542 82.5616C56.216 79.6315 54.505 75.492 54.505 70H52.505C52.505 75.9427 54.378 80.6778 58.22 84.0624L59.542 82.5616ZM54.505 70V18.8H52.505V70H54.505ZM54.505 18.8C54.505 13.2992 56.1786 9.20718 59.4128 6.36745L58.0932 4.86456C54.33 8.16883 52.505 12.8661 52.505 18.8H54.505ZM59.423 6.3584C62.6663 3.43151 67.6299 1.88 74.497 1.88V-0.119995C67.3694 -0.119995 61.837 1.48584 58.083 4.87361L59.423 6.3584ZM74.497 1.88C81.3618 1.88 86.3754 3.43055 89.708 6.36636L91.03 4.86565C87.1946 1.48679 81.6269 -0.119995 74.497 -0.119995V1.88ZM89.7182 6.37526C93.034 9.21736 94.745 13.3071 94.745 18.8H96.745C96.745 12.8582 94.872 8.15865 91.0198 4.85675L89.7182 6.37526ZM94.745 18.8V46.96H96.745V18.8H94.745ZM95.745 45.96H62.465V47.96H95.745V45.96ZM61.465 46.96V70H63.465V46.96H61.465ZM61.465 70C61.465 73.6169 62.5469 76.4963 64.8609 78.4449C67.1419 80.3658 70.4554 81.24 74.625 81.24V79.24C70.6879 79.24 67.9214 78.4075 66.1491 76.9151C64.4098 75.4504 63.465 73.2098 63.465 70H61.465ZM74.625 81.24C78.7945 81.24 82.1081 80.3658 84.3891 78.4449C86.7031 76.4963 87.785 73.6169 87.785 70H85.785C85.785 73.2098 84.8402 75.4504 83.1009 76.9151C81.3286 78.4075 78.5621 79.24 74.625 79.24V81.24ZM61.465 18.8V39.28H63.465V18.8H61.465ZM62.465 40.28H86.785V38.28H62.465V40.28ZM87.785 39.28V18.8H85.785V39.28H87.785ZM87.785 18.8C87.785 15.1831 86.7031 12.3037 84.3891 10.3551C82.1081 8.43421 78.7945 7.56001 74.625 7.56001V9.56001C78.5621 9.56001 81.3286 10.3925 83.1009 11.8849C84.8402 13.3496 85.785 15.5902 85.785 18.8H87.785ZM74.625 7.56001C70.4554 7.56001 67.1419 8.43421 64.8609 10.3551C62.5469 12.3037 61.465 15.1832 61.465 18.8H63.465C63.465 15.5902 64.4098 13.3496 66.1491 11.8849C67.9214 10.3925 70.6879 9.56001 74.625 9.56001V7.56001ZM118.385 85H109.425V87H118.385V85ZM110.425 86V2.8H108.425V86H110.425ZM109.425 3.8H116.465V1.8H109.425V3.8ZM115.465 2.8V11.12H117.465V2.8H115.465ZM117.322 11.6345C121.259 5.07364 126.626 1.88 133.489 1.88V-0.119995C125.845 -0.119995 119.863 3.51304 115.607 10.6055L117.322 11.6345ZM133.489 1.88C139.619 1.88 144.03 3.34029 146.911 6.08414C149.783 8.8193 151.305 12.9936 151.305 18.8H153.305C153.305 12.6597 151.691 7.87404 148.291 4.63587C144.9 1.40639 139.903 -0.119995 133.489 -0.119995V1.88ZM151.305 18.8V86H153.305V18.8H151.305ZM152.305 85H143.345V87H152.305V85ZM144.345 86V18.8H142.345V86H144.345ZM144.345 18.8C144.345 15.4198 143.59 12.6489 141.946 10.6188L140.392 11.8772C141.65 13.4311 142.345 15.6948 142.345 18.8H144.345ZM141.964 10.642C140.313 8.4744 137.35 7.56001 133.489 7.56001V9.56001C137.137 9.56001 139.294 10.4376 140.374 11.854L141.964 10.642ZM133.489 7.56001C129.448 7.56001 125.758 9.13061 122.444 12.1757L123.798 13.6483C126.799 10.8907 130.021 9.56001 133.489 9.56001V7.56001ZM122.444 12.1757C119.196 15.1603 117.385 18.2239 117.385 21.36H119.385C119.385 19.0348 120.731 16.4664 123.798 13.6483L122.444 12.1757ZM117.385 21.36V86H119.385V21.36H117.385ZM187.283 85H166.675V87H187.283V85ZM167.675 86V2.8H165.675V86H167.675ZM166.675 3.8H187.283V1.8H166.675V3.8ZM187.283 3.8C193.795 3.8 198.546 5.34515 201.708 8.2701L203.066 6.8019C199.401 3.41219 194.083 1.8 187.283 1.8V3.8ZM201.717 8.2784C204.965 11.2092 206.635 15.3109 206.635 20.72H208.635C208.635 14.8651 206.807 10.1774 203.057 6.79361L201.717 8.2784ZM206.635 20.72V68.08H208.635V20.72H206.635ZM206.635 68.08C206.635 73.5874 204.999 77.732 201.836 80.6579L203.194 82.1261C206.858 78.7373 208.635 74.0073 208.635 68.08H206.635ZM201.846 80.6487C198.686 83.4927 193.891 85 187.283 85V87C194.158 87 199.517 85.4353 203.184 82.1353L201.846 80.6487ZM199.675 68.08V20.72H197.675V68.08H199.675ZM199.675 20.72C199.675 17.2632 198.62 14.4518 196.405 12.4295L195.057 13.9065C196.767 15.4682 197.675 17.6915 197.675 20.72H199.675ZM196.405 12.4295C194.198 10.4144 191.106 9.48 187.283 9.48V11.48C190.798 11.48 193.338 12.3376 195.057 13.9065L196.405 12.4295ZM187.283 9.48H175.635V11.48H187.283V9.48ZM174.635 10.48V78.32H176.635V10.48H174.635ZM175.635 79.32H187.283V77.32H175.635V79.32ZM187.283 79.32C191.21 79.32 194.341 78.4399 196.495 76.5037C198.67 74.5493 199.675 71.6767 199.675 68.08H197.675C197.675 71.31 196.782 73.5574 195.158 75.0163C193.515 76.4934 190.951 77.32 187.283 77.32V79.32ZM253.66 70V62.96H251.66V70H253.66ZM252.66 63.96H261.62V61.96H252.66V63.96ZM260.62 62.96V70H262.62V62.96H260.62ZM260.62 70C260.62 75.4998 258.946 79.6417 255.702 82.5696L257.042 84.0544C260.795 80.6676 262.62 75.9349 262.62 70H260.62ZM255.712 82.5606C252.469 85.4085 247.501 86.92 240.628 86.92V88.92C247.75 88.92 253.278 87.3595 257.032 84.0634L255.712 82.5606ZM240.628 86.92C233.758 86.92 228.74 85.4095 225.407 82.5527L224.105 84.0713C227.94 87.3585 233.504 88.92 240.628 88.92V86.92ZM225.417 82.5616C222.091 79.6315 220.38 75.492 220.38 70H218.38C218.38 75.9427 220.253 80.6778 224.095 84.0624L225.417 82.5616ZM220.38 70V18.8H218.38V70H220.38ZM220.38 18.8C220.38 13.2992 222.054 9.20718 225.288 6.36745L223.968 4.86456C220.205 8.16883 218.38 12.8661 218.38 18.8H220.38ZM225.298 6.3584C228.541 3.4315 233.505 1.88 240.372 1.88V-0.119995C233.244 -0.119995 227.712 1.48584 223.958 4.87361L225.298 6.3584ZM240.372 1.88C247.237 1.88 252.25 3.43055 255.583 6.36636L256.905 4.86565C253.07 1.48679 247.502 -0.119995 240.372 -0.119995V1.88ZM255.593 6.37526C258.909 9.21737 260.62 13.3071 260.62 18.8H262.62C262.62 12.8582 260.747 8.15865 256.895 4.85675L255.593 6.37526ZM260.62 18.8V46.96H262.62V18.8H260.62ZM261.62 45.96H228.34V47.96H261.62V45.96ZM227.34 46.96V70H229.34V46.96H227.34ZM227.34 70C227.34 73.6169 228.422 76.4963 230.736 78.4449C233.017 80.3658 236.33 81.24 240.5 81.24V79.24C236.563 79.24 233.796 78.4075 232.024 76.9151C230.285 75.4504 229.34 73.2098 229.34 70H227.34ZM240.5 81.24C244.67 81.24 247.983 80.3658 250.264 78.4449C252.578 76.4963 253.66 73.6169 253.66 70H251.66C251.66 73.2098 250.715 75.4504 248.976 76.9151C247.204 78.4075 244.437 79.24 240.5 79.24V81.24ZM227.34 18.8V39.28H229.34V18.8H227.34ZM228.34 40.28H252.66V38.28H228.34V40.28ZM253.66 39.28V18.8H251.66V39.28H253.66ZM253.66 18.8C253.66 15.1831 252.578 12.3037 250.264 10.3551C247.983 8.43421 244.67 7.56001 240.5 7.56001V9.56001C244.437 9.56001 247.204 10.3925 248.976 11.8849C250.715 13.3496 251.66 15.5902 251.66 18.8H253.66ZM240.5 7.56001C236.33 7.56001 233.017 8.43421 230.736 10.3551C228.422 12.3037 227.34 15.1831 227.34 18.8H229.34C229.34 15.5902 230.285 13.3496 232.024 11.8849C233.796 10.3925 236.563 9.56001 240.5 9.56001V7.56001ZM307.66 70V62.96H305.66V70H307.66ZM306.66 63.96H315.62V61.96H306.66V63.96ZM314.62 62.96V70H316.62V62.96H314.62ZM314.62 70C314.62 75.4998 312.946 79.6417 309.702 82.5696L311.042 84.0544C314.795 80.6676 316.62 75.9349 316.62 70H314.62ZM309.712 82.5606C306.469 85.4085 301.501 86.92 294.628 86.92V88.92C301.75 88.92 307.278 87.3595 311.032 84.0634L309.712 82.5606ZM294.628 86.92C287.758 86.92 282.74 85.4095 279.407 82.5527L278.105 84.0713C281.94 87.3585 287.504 88.92 294.628 88.92V86.92ZM279.417 82.5616C276.091 79.6315 274.38 75.492 274.38 70H272.38C272.38 75.9427 274.253 80.6778 278.095 84.0624L279.417 82.5616ZM274.38 70V18.8H272.38V70H274.38ZM274.38 18.8C274.38 13.2992 276.054 9.20718 279.288 6.36745L277.968 4.86456C274.205 8.16883 272.38 12.8661 272.38 18.8H274.38ZM279.298 6.3584C282.541 3.4315 287.505 1.88 294.372 1.88V-0.119995C287.244 -0.119995 281.712 1.48584 277.958 4.87361L279.298 6.3584ZM294.372 1.88C301.237 1.88 306.25 3.43055 309.583 6.36636L310.905 4.86565C307.07 1.48679 301.502 -0.119995 294.372 -0.119995V1.88ZM315.62 29.96H306.66V31.96H315.62V29.96ZM294.5 7.56001C290.33 7.56001 287.017 8.43421 284.736 10.3551C282.422 12.3037 281.34 15.1831 281.34 18.8H283.34C283.34 15.5902 284.285 13.3496 286.024 11.8849C287.796 10.3925 290.563 9.56001 294.5 9.56001V7.56001ZM281.34 18.8V70H283.34V18.8H281.34ZM281.34 70C281.34 73.6169 282.422 76.4963 284.736 78.4449C287.017 80.3658 290.33 81.24 294.5 81.24V79.24C290.563 79.24 287.796 78.4075 286.024 76.9151C284.285 75.4504 283.34 73.2098 283.34 70H281.34ZM294.5 81.24C298.67 81.24 301.983 80.3658 304.264 78.4449C306.578 76.4963 307.66 73.6169 307.66 70H305.66C305.66 73.2098 304.715 75.4504 302.976 76.9151C301.204 78.4075 298.437 79.24 294.5 79.24V81.24ZM307.66 30.96V22.5H305.66V30.96H307.66ZM307.66 22.5V18.8H305.66V22.5H307.66ZM314.62 18.8V22.5H316.62V18.8H314.62ZM314.62 22.5V30.96H316.62V22.5H314.62ZM307.66 18.8C307.66 16.9948 307.392 15.3705 306.828 13.948L304.969 14.6849C305.42 15.8239 305.66 17.1886 305.66 18.8H307.66ZM306.828 13.948C305.087 9.5546 300.761 7.56001 294.5 7.56001V9.56001C300.395 9.56001 303.668 11.403 304.969 14.6849L306.828 13.948ZM309.593 6.37526C311.075 7.64536 312.224 9.15317 313.048 10.9055L314.858 10.0545C313.913 8.04455 312.59 6.30969 310.895 4.85675L309.593 6.37526ZM313.048 10.9055C314.085 13.1097 314.62 15.7321 314.62 18.8H316.62C316.62 15.5011 316.044 12.5768 314.858 10.0545L313.048 10.9055Z"
     fill="black"
     mask="url(#path-1-inside-1_0_1)"
     id="path12" />
  <line
     x1="289.507"
     y1="8.0822"
     x2="288.507"
     y2="2.0822"
     stroke="black"
     id="line12" />
  <line
     x1="282.803"
     y1="13.4596"
     x2="275.803"
     y2="10.4596"
     stroke="black"
     id="line13" />
  <line
     x1="282"
     y1="23.5"
     x2="274"
     y2="23.5"
     stroke="black"
     id="line14" />
  <line
     x1="282"
     y1="34.5"
     x2="274"
     y2="34.5"
     stroke="black"
     id="line15" />
  <line
     x1="282"
     y1="44.5"
     x2="274"
     y2="44.5"
     stroke="black"
     id="line16" />
  <line
     x1="282"
     y1="54.5"
     x2="274"
     y2="54.5"
     stroke="black"
     id="line17" />
  <line
     x1="282"
     y1="64.5"
     x2="274"
     y2="64.5"
     stroke="black"
     id="line18" />
  <line
     x1="282.137"
     y1="74.4808"
     x2="275.137"
     y2="76.4808"
     stroke="black"
     id="line19" />
  <line
     x1="287.46"
     y1="79.197"
     x2="284.46"
     y2="86.197"
     stroke="black"
     id="line20" />
  <line
     x1="298.495"
     y1="79.9293"
     x2="299.495"
     y2="86.9293"
     stroke="black"
     id="line21" />
  <line
     x1="306.248"
     y1="74.5659"
     x2="313.248"
     y2="78.5659"
     stroke="black"
     id="line22" />
</svg>
